# xmcd
#
# Track frame offsets: 
#        150
#        2039
#        13555
#        22097
#        34568
#        46088
#        60800
#        69816
#        81558
#        89637
#        98831
#        112702
#        125492
#        138218
#        162956
#        175891
#        186005
#        201553
#
# Disc length: 2825 seconds
#
# Revision: 1
# Processed by: cddbd v1.5.2PL0 Copyright (c) Steve Scherf et al.
# Submitted via: ExactAudioCopy v1.3
#
DISCID=e00b0712
DTITLE=Obermüller Musikanten - So klingt's im HOFBRÄUHAUS
DYEAR=2012
DGENRE=National Folk
TTITLE0=01 Ein Prosit der Gemütlichkeit
TTITLE1=02 In München Steht Ein Hofbräuhaus
TTITLE2=03 Schenkt's ma mal was Boarisch's ein
TTITLE3=04 Tölzer Schützenmarsch
TTITLE4=05 Im Hofbräuhaus geht's Bier net aus
TTITLE5=06 Die lustigen Holzhackerbuam
TTITLE6=07 Solang der alte Peter
TTITLE7=08 Haushamer Plattler
TTITLE8=09 Beim Starkbier
TTITLE9=10 Beyerischer Defiliermarsch
TTITLE10=11 So a frische Mass
TTITLE11=12 Schankbursch'n Polka
TTITLE12=13 Gotzinger Landlerschar
TTITLE13=14 Der alte Dessauer
TTITLE14=15 Feit sie nix
TTITLE15=16 Hetterbach Boarischer
TTITLE16=17 Die Fahne weiss-blau
TTITLE17=18 Schäffler Tanz
EXTD=
EXTT0=
EXTT1=
EXTT2=
EXTT3=
EXTT4=
EXTT5=
EXTT6=
EXTT7=
EXTT8=
EXTT9=
EXTT10=
EXTT11=
EXTT12=
EXTT13=
EXTT14=
EXTT15=
EXTT16=
EXTT17=
PLAYORDER=
